<svg id="Layer_1" data-name="Layer 1" xmlns="http://www.w3.org/2000/svg" viewBox="0 0 765.06 216.65"><defs><style>.cls-1{fill:red;}</style></defs><path d="M688.54,407.85,675.29,393.3H655.71v-8.06h21.82c6.55,0,10-3.74,10-10.51s-3.75-10.08-10-10.08H649v43.2h-9.07V355.5h37.59c12,0,19,7.42,19,19.08,0,8.64-4,14.76-10.81,17.36l15.77,15.91Z" transform="translate(-300.47 -254.45)"/><path d="M706.25,407.85V355.5H753v9.15H715.32v34.06h37.73v9.14ZM722,385.1v-7.71h29v7.71Z" transform="translate(-300.47 -254.45)"/><path d="M776.67,393.3v-8.85h21c6.41,0,10.23-4,10.23-9.94s-3.82-9.86-10.23-9.86H770v43.2H760.9V355.5h36.79c12.1,0,19.16,7.27,19.16,18.72s-7.06,19.08-19.16,19.08Z" transform="translate(-300.47 -254.45)"/><path d="M847.23,407.85c-14.62,0-25.42-11.52-25.42-26.71,0-15.41,10.8-25.64,25.42-25.64H860c15.12,0,25.64,10.44,25.64,25.64S874.88,407.85,860,407.85ZM860,398.71c9.65,0,16.49-7.28,16.49-17.14s-6.84-16.92-16.49-16.92H847.23c-9.36,0-16.28,7-16.28,16.92s6.84,17.14,16.28,17.14Z" transform="translate(-300.47 -254.45)"/><path d="M941.62,407.85,928.37,393.3H908.78v-8.06H930.6c6.55,0,10-3.74,10-10.51s-3.74-10.08-10-10.08H902.09v43.2H893V355.5H930.6c12,0,19,7.42,19,19.08,0,8.64-4,14.76-10.8,17.36l15.77,15.91Z" transform="translate(-300.47 -254.45)"/><path d="M975,407.85v-43.2H955.08V355.5H1004v9.15H984.1v43.2Z" transform="translate(-300.47 -254.45)"/><path d="M1010,407.85v-9.14h39.25c4.89,0,7.63-2.74,7.63-6.85,0-4.46-2.74-6.76-7.63-6.76h-24c-9.87,0-16-6.27-16-14.91,0-8.42,5.69-14.69,16.13-14.69h37.59v9.15h-37.59c-4.18,0-6.62,2.44-6.62,6.4s2.52,6.34,6.55,6.34h24c10.58,0,16.27,5,16.27,15.12,0,8.79-5.33,15.34-16.27,15.34Z" transform="translate(-300.47 -254.45)"/><polygon points="149.9 0 121.89 60.38 177.9 60.38 149.9 0"/><polygon class="cls-1" points="149.9 17.2 121.89 77.57 177.9 77.57 149.9 17.2"/><path d="M301.26,407.77v-9.12h39.12c4.88,0,7.61-2.73,7.61-6.82,0-4.45-2.73-6.74-7.61-6.74h-24c-9.83,0-15.93-6.25-15.93-14.86,0-8.4,5.67-14.65,16.08-14.65H354v9.12H316.55c-4.17,0-6.61,2.44-6.61,6.39s2.51,6.32,6.53,6.32h23.91c10.55,0,16.22,4.95,16.22,15.07,0,8.76-5.31,15.29-16.22,15.29Z" transform="translate(-300.47 -254.45)"/><path d="M380.14,393.27v-8.83h21c6.39,0,10.19-4,10.19-9.91s-3.8-9.83-10.19-9.83H373.47v43.07h-9.05V355.58H401.1c12.06,0,19.1,7.25,19.1,18.67,0,11.27-7,19-19.1,19Z" transform="translate(-300.47 -254.45)"/><path d="M535.54,407.77l-7.82-13.14H503l4.3-7.39h16l-11.63-19.52-23.69,40h-10.4l30-50c1.08-1.8,2.44-2.94,4.45-2.94s3.3,1.14,4.38,2.94l30.08,50Z" transform="translate(-300.47 -254.45)"/><path d="M600.58,407.77l-13.21-14.5H567.84v-8h21.75c6.53,0,10-3.73,10-10.48s-3.73-10.05-10-10.05H561.17v43.07h-9V355.58h37.47c11.92,0,18.95,7.4,18.95,19,0,8.61-4,14.71-10.76,17.29l15.72,15.87Z" transform="translate(-300.47 -254.45)"/><rect class="cls-1" x="135.31" y="122.78" width="28.93" height="7.68"/><rect x="133.45" y="144.12" width="32.9" height="9.2"/><rect x="133.2" y="101.14" width="32.9" height="9.2"/><rect x="135.88" y="160.94" width="9.35" height="55.7"/><rect class="cls-1" x="145.22" y="160.94" width="9.35" height="55.7"/><rect x="154.57" y="160.94" width="9.35" height="55.7"/><polygon points="149.9 33.65 121.89 94.02 177.9 94.02 149.9 33.65"/></svg>